<svg width="32" height="32" viewBox="0 0 32 32" fill="none" xmlns="http://www.w3.org/2000/svg">
<path id="cart" d="M22.1119 11.8V7.6C22.1119 4.50721 19.3755 2 16 2C12.6245 2 9.88812 4.50721 9.88812 7.6V11.8M3.15283 13.6928L2.23604 22.6527C1.97538 25.2003 1.84504 26.4741 2.3064 27.458C2.71169 28.3223 3.42193 29.0369 4.32328 29.4873C5.34932 30 6.74564 30 9.53828 30H22.4617C25.2544 30 26.6507 30 27.6767 29.4873C28.5781 29.0369 29.2883 28.3223 29.6936 27.458C30.155 26.4741 30.0246 25.2003 29.764 22.6528L28.8472 13.6928C28.6271 11.5415 28.517 10.4659 27.989 9.65263C27.5239 8.93642 26.8369 8.36316 26.0152 8.00578C25.0822 7.6 23.9031 7.6 21.5449 7.6L10.4551 7.6C8.09686 7.6 6.91776 7.6 5.98479 8.00578C5.16312 8.36315 4.47606 8.93642 4.01102 9.65263C3.483 10.4658 3.37294 11.5415 3.15283 13.6928Z" stroke="#3D475C" stroke-width="3" stroke-linecap="round" stroke-linejoin="round"/>
</svg>
